# xmcd CD database file
#
# Track frame offsets:
#	150
#	24399
#	49559
#	78987
#	105664
#	130843
#	161168
#	183302
#
# Disc length: 2836 seconds
#
# Revision: 1
# Processed by: cddbd v1.5.2PL0 Copyright (c) Steve Scherf et al.
# Submitted via: CDex 1.50
#
DISCID=5b0b1208
DTITLE=Per Mathisen - Sounds of 3
DYEAR=2016
DGENRE=Jazz
TTITLE0=The C Sharp Man
TTITLE1=Rabbagast II
TTITLE2=Maestro H. Sunde
TTITLE3=Kick Ab Shuffle
TTITLE4=Pavane
TTITLE5=Skumringstimen
TTITLE6=Rumbamania
TTITLE7=Travelin' Man
EXTD=YEAR: 2016
EXTT0=
EXTT1=
EXTT2=
EXTT3=
EXTT4=
EXTT5=
EXTT6=
EXTT7=
PLAYORDER=
